<?xml version="1.0" encoding="utf-8"?>
<!-- Generator: Adobe Illustrator 24.3.0, SVG Export Plug-In . SVG Version: 6.00 Build 0)  -->
<svg version="1.1" id="Layer_1" focusable="false" xmlns="http://www.w3.org/2000/svg" xmlns:xlink="http://www.w3.org/1999/xlink"
	 x="0px" y="0px" viewBox="0 0 1087.4 1038.8" enable-background="new 0 0 1087.4 1038.8" xml:space="preserve">
<path fill="#7100DF" d="M787.2,605.9c21.8-67.2-14.9-139.4-82.2-161.3s-139.4,14.9-161.3,82.2c-21.8,67.2,14.9,139.4,82.2,161.3
	C693.1,710,765.3,673.2,787.2,605.9z M845.3,530.6l-5.2,15.9c2.8,24.3,0.7,49.5-7.3,74.3c-8,24.7-21.2,46.3-37.7,64.4l-5.2,15.9
	c-22.9,70.6,15.7,146.4,86.3,169.4l39.6,12.9c25.2,8.2,52.3-5.6,60.5-30.8L1085,517.7c8.2-25.2-5.6-52.3-30.8-60.5l-39.6-12.9
	C944.1,421.4,868.2,460,845.3,530.6z"/>
<path fill="#8224DF" d="M787.2,605.9c21.8-67.2-14.9-139.4-82.2-161.3s-139.4,14.9-161.3,82.2c-21.8,67.2,14.9,139.4,82.2,161.3
	C693.1,710,765.3,673.2,787.2,605.9z M845.3,530.6l-5.2,15.9c2.8,24.3,0.7,49.5-7.3,74.3c-8,24.7-21.2,46.3-37.7,64.4l-5.2,15.9
	c-22.9,70.6,15.7,146.4,86.3,169.4l39.6,12.9c25.2,8.2,52.3-5.6,60.5-30.8L1085,517.7c8.2-25.2-5.6-52.3-30.8-60.5l-39.6-12.9
	C944.1,421.4,868.2,460,845.3,530.6z"/>
<path fill="#94156E" d="M694.2,319.7C637,278.2,556.9,290.8,515.4,348s-28.9,137.2,28.3,178.8s137.2,28.9,178.8-28.3
	S751.4,361.3,694.2,319.7z M640.5,241.2L654,251c24,4.8,47.3,14.6,68.4,29.9c21,15.3,37.5,34.4,49.6,55.8l13.5,9.8
	c60,43.6,144.1,30.3,187.7-29.7l24.5-33.7c15.6-21.4,10.8-51.5-10.6-67L702.2,9.2c-21.4-15.6-51.5-10.8-67,10.6l-24.5,33.7
	C567.1,113.5,580.5,197.6,640.5,241.2z"/>
<path fill="#2453C9" d="M393.2,319.7c-57.2,41.6-69.9,121.6-28.3,178.8s121.6,69.9,178.8,28.3S613.6,405.2,572,348
	S450.4,278.2,393.2,319.7z M301.9,346.5l13.5-9.8c12-21.3,28.5-40.5,49.6-55.8c21-15.3,44.3-25,68.4-29.9l13.5-9.8
	c60-43.6,73.3-127.7,29.7-187.7l-24.5-33.7c-15.6-21.4-45.6-26.2-67-10.6L100.4,216.1c-21.4,15.6-26.2,45.6-10.6,67l24.5,33.7
	C157.8,376.8,241.9,390.1,301.9,346.5z"/>
<path fill="#1F806F" d="M300.2,605.9c21.8,67.2,94,104,161.3,82.2c67.2-21.8,104-94,82.2-161.3c-21.8-67.2-94-104-161.3-82.2
	S278.4,538.7,300.2,605.9z M297.5,701l-5.2-15.9c-16.6-18-29.7-39.7-37.7-64.4c-8-24.7-10.1-49.9-7.3-74.3l-5.2-15.9
	c-22.9-70.6-98.8-109.2-169.4-86.3l-39.6,12.9c-25.2,8.2-39,35.3-30.8,60.5l108.8,334.8c8.2,25.2,35.3,39,60.5,30.8l39.6-12.9
	C281.8,847.5,320.4,771.6,297.5,701z"/>
<path d="M543.7,782.8c70.7,0,128-57.3,128-128s-57.3-128-128-128s-128,57.3-128,128S473,782.8,543.7,782.8z M633.3,814.8h-16.7
	c-22.2,10.2-46.9,16-72.9,16s-50.6-5.8-72.9-16h-16.7c-74.2,0-134.4,60.2-134.4,134.4v41.6c0,26.5,21.5,48,48,48h352
	c26.5,0,48-21.5,48-48v-41.6C767.7,875,707.5,814.8,633.3,814.8z"/>
<path fill="#8224DF" d="M543.7,526.8c-21.8,67.2,14.9,139.4,82.2,161.3c67.2,21.8,139.4-14.9,161.3-82.2L543.7,526.8z"/>
<path fill="#94156E" d="M722.5,498.5c7.8-10.8,13.8-22.4,17.8-34.4l-196.6,62.8C600.9,568.4,680.9,555.7,722.5,498.5z"/>
</svg>
