<?xml version="1.0" encoding="utf-8"?>
<!-- Generator: Adobe Illustrator 26.0.2, SVG Export Plug-In . SVG Version: 6.00 Build 0)  -->
<svg version="1.1" id="Layer_1" focusable="false" xmlns="http://www.w3.org/2000/svg" xmlns:xlink="http://www.w3.org/1999/xlink"
	 x="0px" y="0px" viewBox="0 0 640 512" enable-background="new 0 0 640 512" xml:space="preserve">
<g>
	<path d="M368.9,415.1c-15.5,12.4-31.9,22.8-48.8,31.2l0-68.9l-235.5-182c22.3,162.1,122.5,273.6,216.9,312.9
		c11.8,4.9,25.1,4.9,36.9,0c24.8-10.3,53.7-27.9,82.3-53.1L368.9,415.1z"/>
	<path d="M633.8,458.1L501.7,356C536,296.8,560,221.1,560,128c0-19.4-11.7-36.9-29.5-44.3l-192-80c-11.8-4.9-25.1-4.9-36.9,0
		L135.5,72.9l-90-69.6c-7-5.4-17-4.2-22.5,2.8c0,0,0,0,0,0L3.4,31.5c-5.4,7-4.2,17,2.8,22.5l76.3,59l0,0l237.6,183.6l0,0l94.8,73.3
		l0,0l179.7,138.9c7,5.4,17,4.2,22.5-2.8c0,0,0,0,0,0l19.6-25.3C642.1,473.6,640.8,463.5,633.8,458.1z M450.7,316.5L320,215.6
		l0-150.3l175.9,73.3C494.4,207.1,477.5,267.1,450.7,316.5z"/>
</g>
</svg>
